# MirrorFit basic hoodie test mesh
v -1.40000 -0.25000 -0.37500
v 1.40000 -0.25000 -0.37500
v 1.40000 2.75000 -0.37500
v -1.40000 2.75000 -0.37500
v -1.40000 -0.25000 0.37500
v 1.40000 -0.25000 0.37500
v 1.40000 2.75000 0.37500
v -1.40000 2.75000 0.37500
v -2.22500 0.00000 -0.36000
v -1.47500 0.00000 -0.36000
v -1.47500 2.70000 -0.36000
v -2.22500 2.70000 -0.36000
v -2.22500 0.00000 0.36000
v -1.47500 0.00000 0.36000
v -1.47500 2.70000 0.36000
v -2.22500 2.70000 0.36000
v 1.47500 0.00000 -0.36000
v 2.22500 0.00000 -0.36000
v 2.22500 2.70000 -0.36000
v 1.47500 2.70000 -0.36000
v 1.47500 0.00000 0.36000
v 2.22500 0.00000 0.36000
v 2.22500 2.70000 0.36000
v 1.47500 2.70000 0.36000
v -0.82500 2.42500 -0.47000
v 0.82500 2.42500 -0.47000
v 0.82500 3.67500 -0.47000
v -0.82500 3.67500 -0.47000
v -0.82500 2.42500 0.43000
v 0.82500 2.42500 0.43000
v 0.82500 3.67500 0.43000
v -0.82500 3.67500 0.43000
v -0.67500 0.24000 -0.48000
v 0.67500 0.24000 -0.48000
v 0.67500 0.66000 -0.48000
v -0.67500 0.66000 -0.48000
v -0.67500 0.24000 -0.36000
v 0.67500 0.24000 -0.36000
v 0.67500 0.66000 -0.36000
v -0.67500 0.66000 -0.36000
f 1 2 3 4
f 5 8 7 6
f 1 5 6 2
f 2 6 7 3
f 3 7 8 4
f 5 1 4 8
f 9 10 11 12
f 13 16 15 14
f 9 13 14 10
f 10 14 15 11
f 11 15 16 12
f 13 9 12 16
f 17 18 19 20
f 21 24 23 22
f 17 21 22 18
f 18 22 23 19
f 19 23 24 20
f 21 17 20 24
f 25 26 27 28
f 29 32 31 30
f 25 29 30 26
f 26 30 31 27
f 27 31 32 28
f 29 25 28 32
f 33 34 35 36
f 37 40 39 38
f 33 37 38 34
f 34 38 39 35
f 35 39 40 36
f 37 33 36 40
